<svg width="12" height="12" viewBox="0 0 12 12" fill="none" xmlns="http://www.w3.org/2000/svg">
<path d="M9.6 9.6C8.934 9.6 8.4 10.134 8.4 10.8C8.4 11.1183 8.52643 11.4235 8.75147 11.6485C8.97652 11.8736 9.28174 12 9.6 12C9.91826 12 10.2235 11.8736 10.4485 11.6485C10.6736 11.4235 10.8 11.1183 10.8 10.8C10.8 10.4817 10.6736 10.1765 10.4485 9.95147C10.2235 9.72643 9.91826 9.6 9.6 9.6ZM0 0V1.2H1.2L3.36 5.754L2.544 7.224C2.454 7.392 2.4 7.59 2.4 7.8C2.4 8.11826 2.52643 8.42348 2.75147 8.64853C2.97652 8.87357 3.28174 9 3.6 9H10.8V7.8H3.852C3.81222 7.8 3.77406 7.7842 3.74593 7.75607C3.7178 7.72794 3.702 7.68978 3.702 7.65C3.702 7.62 3.708 7.596 3.72 7.578L4.26 6.6H8.73C9.18 6.6 9.576 6.348 9.78 5.982L11.928 2.1C11.97 2.004 12 1.902 12 1.8C12 1.64087 11.9368 1.48826 11.8243 1.37574C11.7117 1.26321 11.5591 1.2 11.4 1.2H2.526L1.962 0M3.6 9.6C2.934 9.6 2.4 10.134 2.4 10.8C2.4 11.1183 2.52643 11.4235 2.75147 11.6485C2.97652 11.8736 3.28174 12 3.6 12C3.91826 12 4.22348 11.8736 4.44853 11.6485C4.67357 11.4235 4.8 11.1183 4.8 10.8C4.8 10.4817 4.67357 10.1765 4.44853 9.95147C4.22348 9.72643 3.91826 9.6 3.6 9.6Z" fill="black"/>
</svg>
