<svg width="19" height="22" viewBox="0 0 19 22" fill="none" xmlns="http://www.w3.org/2000/svg">
<path d="M5.42857 7.90625C5.42857 6.57942 6.49401 5.5 7.80357 5.5H13.5714V2.40625C13.5714 1.8367 13.1157 1.375 12.5536 1.375H9.13484C8.66476 0.553867 7.78818 0 6.78571 0C5.78325 0 4.90666 0.553867 4.43658 1.375H1.01786C0.455703 1.375 0 1.8367 0 2.40625V16.8438C0 17.4133 0.455703 17.875 1.01786 17.875H5.42857V7.90625ZM6.78571 1.71875C7.34787 1.71875 7.80357 2.18045 7.80357 2.75C7.80357 3.31955 7.34787 3.78125 6.78571 3.78125C6.22356 3.78125 5.76786 3.31955 5.76786 2.75C5.76786 2.18045 6.22356 1.71875 6.78571 1.71875ZM14.5893 12.375H19V20.9688C19 21.5383 18.5443 22 17.9821 22H7.80357C7.24142 22 6.78571 21.5383 6.78571 20.9688V7.90625C6.78571 7.3367 7.24142 6.875 7.80357 6.875H13.5714V11.3438C13.5714 11.9109 14.0295 12.375 14.5893 12.375ZM19 10.7397V11H14.9286V6.875H15.1855C15.4555 6.875 15.7144 6.98364 15.9052 7.17703L18.7019 10.0104C18.8927 10.2038 19 10.4661 19 10.7397Z" fill="black"/>
</svg>
