<svg width="36" height="36" viewBox="0 0 36 36" fill="none" xmlns="http://www.w3.org/2000/svg">
<rect x="0.511719" y="0.0297241" width="35.3011" height="35.3011" rx="17.6506" fill="#FFE6D9"/>
<g clip-path="url(#clip0_265_954)">
<path d="M24.5244 18.9088L19.2513 24.1819C19.1147 24.3187 18.9524 24.4272 18.7739 24.5012C18.5953 24.5752 18.4039 24.6133 18.2106 24.6133C18.0173 24.6133 17.8259 24.5752 17.6474 24.5012C17.4688 24.4272 17.3066 24.3187 17.17 24.1819L10.8525 17.8719V10.5175H18.2069L24.5244 16.8349C24.7983 17.1105 24.9521 17.4833 24.9521 17.8719C24.9521 18.2604 24.7983 18.6332 24.5244 18.9088V18.9088Z" stroke="#FE9C69" stroke-width="1.47088" stroke-linecap="round" stroke-linejoin="round"/>
<path d="M14.5303 14.1918H14.539" stroke="#FE9C69" stroke-width="1.47088" stroke-linecap="round" stroke-linejoin="round"/>
</g>
<defs>
<clipPath id="clip0_265_954">
<rect width="17.6506" height="17.6506" fill="white" transform="translate(9.38086 9.04272)"/>
</clipPath>
</defs>
</svg>
