<svg width="18" height="14" viewBox="0 0 18 14" fill="none" xmlns="http://www.w3.org/2000/svg">
<path d="M1.615 14C1.155 14 0.771 13.846 0.463 13.538C0.155 13.23 0.000666667 12.8457 0 12.385V10.269H1V12.385C1 12.5383 1.064 12.6793 1.192 12.808C1.32 12.9367 1.461 13.0007 1.615 13H16.385C16.5383 13 16.6793 12.936 16.808 12.808C16.9367 12.68 17.0007 12.539 17 12.385V1.615C17 1.46167 16.936 1.32067 16.808 1.192C16.68 1.06333 16.539 0.999333 16.385 1H1.615C1.46167 1 1.32067 1.064 1.192 1.192C1.06333 1.32 0.999333 1.461 1 1.615V3.731H0V1.615C0 1.155 0.154333 0.771 0.463 0.463C0.771667 0.155 1.15567 0.000666667 1.615 0H16.385C16.845 0 17.229 0.154333 17.537 0.463C17.845 0.771667 17.9993 1.15567 18 1.615V12.385C18 12.845 17.846 13.229 17.538 13.537C17.23 13.845 16.8457 13.9993 16.385 14H1.615ZM8.885 10.423L8.177 9.703L10.387 7.5H0V6.5H10.387L8.177 4.296L8.885 3.576L12.308 7L8.885 10.423Z" fill="white"/>
</svg>
