<svg width="30" height="26" viewBox="0 0 30 26" fill="none" xmlns="http://www.w3.org/2000/svg">
<path d="M28.75 1.76257C28.75 1.76257 26.2275 3.25257 24.825 3.67507C24.0722 2.80946 23.0717 2.19593 21.9588 1.91748C20.8459 1.63902 19.6744 1.70906 18.6026 2.11814C17.5308 2.52721 16.6106 3.25557 15.9662 4.20472C15.3219 5.15386 14.9846 6.27799 15 7.42507V8.67507C12.8033 8.73203 10.6266 8.24484 8.66376 7.25688C6.70093 6.26892 5.0129 4.81086 3.75 3.01257C3.75 3.01257 -1.25 14.2626 10 19.2626C7.42566 21.01 4.35895 21.8862 1.25 21.7626C12.5 28.0126 26.25 21.7626 26.25 7.38757C26.25 7.04007 26.215 6.69257 26.15 6.35007C27.425 5.09257 28.75 1.76257 28.75 1.76257Z" stroke="white" stroke-width="2.5" stroke-linecap="round" stroke-linejoin="round"/>
</svg>
